<!DOCTYPE svg PUBLIC "-//W3C//DTD SVG 1.1//EN" "http://www.w3.org/Graphics/SVG/1.1/DTD/svg11.dtd">
<svg xmlns="http://www.w3.org/2000/svg" version="1.1" width="1300" height="1300" viewBox="0 0 1300 1300">
	<image href="img/chessboard.jpg" />    <image x="82px" y="82px" width="142px" height="142px" href="img/rb.png"/>"
    <image x="224px" y="82px" width="142px" height="142px" href="img/nb.png"/>"
    <image x="366px" y="82px" width="142px" height="142px" href="img/bb.png"/>"
    <image x="508px" y="82px" width="142px" height="142px" href="img/qb.png"/>"
    <image x="650px" y="82px" width="142px" height="142px" href="img/kb.png"/>"
    <image x="792px" y="82px" width="142px" height="142px" href="img/bb.png"/>"
    <image x="934px" y="82px" width="142px" height="142px" href="img/nb.png"/>"
    <image x="1076px" y="82px" width="142px" height="142px" href="img/rb.png"/>"
    <image x="224px" y="224px" width="142px" height="142px" href="img/pb.png"/>"
    <image x="366px" y="224px" width="142px" height="142px" href="img/pb.png"/>"
    <image x="508px" y="224px" width="142px" height="142px" href="img/pb.png"/>"
    <image x="650px" y="224px" width="142px" height="142px" href="img/pb.png"/>"
    <image x="792px" y="224px" width="142px" height="142px" href="img/pb.png"/>"
    <image x="934px" y="224px" width="142px" height="142px" href="img/pb.png"/>"
    <image x="1076px" y="224px" width="142px" height="142px" href="img/pb.png"/>"
    <image x="82px" y="508px" width="142px" height="142px" href="img/pb.png"/>"
    <image x="82px" y="792px" width="142px" height="142px" href="img/rw.png"/>"
    <image x="224px" y="934px" width="142px" height="142px" href="img/pw.png"/>"
    <image x="366px" y="934px" width="142px" height="142px" href="img/pw.png"/>"
    <image x="508px" y="934px" width="142px" height="142px" href="img/pw.png"/>"
    <image x="650px" y="934px" width="142px" height="142px" href="img/pw.png"/>"
    <image x="792px" y="934px" width="142px" height="142px" href="img/pw.png"/>"
    <image x="934px" y="934px" width="142px" height="142px" href="img/pw.png"/>"
    <image x="1076px" y="934px" width="142px" height="142px" href="img/pw.png"/>"
    <image x="224px" y="1076px" width="142px" height="142px" href="img/nw.png"/>"
    <image x="366px" y="1076px" width="142px" height="142px" href="img/bw.png"/>"
    <image x="508px" y="1076px" width="142px" height="142px" href="img/qw.png"/>"
    <image x="650px" y="1076px" width="142px" height="142px" href="img/kw.png"/>"
    <image x="792px" y="1076px" width="142px" height="142px" href="img/bw.png"/>"
    <image x="934px" y="1076px" width="142px" height="142px" href="img/nw.png"/>"
    <image x="1076px" y="1076px" width="142px" height="142px" href="img/rw.png"/>"
</svg>